<svg width="600" height="400" viewBox="0 0 600 400" fill="none" xmlns="http://www.w3.org/2000/svg">
  <rect width="600" height="400" fill="#F4F5F7"/>
  <rect x="100" y="50" width="400" height="300" rx="8" fill="#4A6FA5" fill-opacity="0.1"/>
  
  <!-- Wardrobe outline -->
  <rect x="150" y="80" width="300" height="240" stroke="#4A6FA5" stroke-width="3" fill="#FFFFFF"/>
  <line x1="300" y1="80" x2="300" y2="320" stroke="#4A6FA5" stroke-width="3"/>
  
  <!-- Hangers and clothes (left side) -->
  <path d="M200 100 L230 150 L240 145" stroke="#4A6FA5" stroke-width="2"/>
  <path d="M230 100 L260 150 L270 145" stroke="#4A6FA5" stroke-width="2"/>
  <rect x="210" y="150" width="40" height="80" rx="4" fill="#7193C0"/>
  <rect x="240" y="150" width="30" height="80" rx="4" fill="#E5707E"/>
  
  <!-- Hangers and clothes (right side) -->
  <path d="M330 100 L360 150 L370 145" stroke="#4A6FA5" stroke-width="2"/>
  <path d="M360 100 L390 150 L400 145" stroke="#4A6FA5" stroke-width="2"/>
  <rect x="340" y="150" width="40" height="80" rx="4" fill="#F9C784"/>
  <rect x="370" y="150" width="30" height="80" rx="4" fill="#4A6FA5"/>
  
  <!-- Drawers -->
  <rect x="180" y="240" width="100" height="25" stroke="#4A6FA5" stroke-width="2" fill="#FFFFFF"/>
  <rect x="180" y="265" width="100" height="25" stroke="#4A6FA5" stroke-width="2" fill="#FFFFFF"/>
  <rect x="320" y="240" width="100" height="25" stroke="#4A6FA5" stroke-width="2" fill="#FFFFFF"/>
  <rect x="320" y="265" width="100" height="25" stroke="#4A6FA5" stroke-width="2" fill="#FFFFFF"/>
  
  <!-- Drawer handles -->
  <circle cx="230" cy="252.5" r="3" fill="#4A6FA5"/>
  <circle cx="230" cy="277.5" r="3" fill="#4A6FA5"/>
  <circle cx="370" cy="252.5" r="3" fill="#4A6FA5"/>
  <circle cx="370" cy="277.5" r="3" fill="#4A6FA5"/>
  
  <!-- Weather icons -->
  <circle cx="450" cy="100" r="15" fill="#F9C784"/>
  <path d="M420 130 C420 120 430 115 440 120 C445 110 460 110 465 120 C475 115 485 120 485 130 C485 140 475 145 465 140 C460 150 445 150 440 140 C430 145 420 140 420 130Z" fill="#7193C0" fill-opacity="0.7"/>
  
  <!-- Mobile device showing app -->
  <rect x="450" y="200" width="70" height="120" rx="8" stroke="#4A6FA5" stroke-width="2" fill="#FFFFFF"/>
  <rect x="455" y="210" width="60" height="90" fill="#F4F5F7"/>
  <rect x="460" y="220" width="20" height="20" rx="2" fill="#7193C0"/>
  <rect x="490" y="220" width="20" height="20" rx="2" fill="#E5707E"/>
  <rect x="460" y="250" width="20" height="20" rx="2" fill="#F9C784"/>
  <rect x="490" y="250" width="20" height="20" rx="2" fill="#4A6FA5"/>
  <circle cx="485" cy="315" r="5" stroke="#4A6FA5" stroke-width="1.5" fill="none"/>
</svg> 